<svg xmlns="http://www.w3.org/2000/svg" xmlns:xlink="http://www.w3.org/1999/xlink" width="363.655" height="363.444"><defs><linearGradient id="a"><stop offset="0"/><stop offset="1" stop-opacity="0"/></linearGradient><linearGradient id="b"><stop offset="0" stop-color="#0663b4"/><stop offset="1" stop-color="#16adff" stop-opacity=".685"/></linearGradient><linearGradient id="c"><stop offset="0" stop-color="#047fc7"/><stop offset="1" stop-color="#11abe8"/></linearGradient><filter id="f" x="-.13" width="1.261" y="-.13" height="1.261" color-interpolation-filters="sRGB"><feGaussianBlur stdDeviation="12.112"/></filter><clipPath id="g"><rect width="192.207" height="190.238" x="273.941" y="774.743" ry="61.519" fill="url(#d)"/></clipPath><radialGradient xlink:href="#b" id="d" gradientUnits="userSpaceOnUse" gradientTransform="matrix(.8143 .828 -.7533 .7408 313.147 151.71)" cx="475.277" cy="438.189" fx="475.277" fy="438.189" r="147.987"/><linearGradient xlink:href="#c" id="h" gradientUnits="userSpaceOnUse" x1="286.883" y1="680.626" x2="286.883" y2="623.047"/><radialGradient xlink:href="#b" id="e" gradientUnits="userSpaceOnUse" gradientTransform="matrix(1.7825 .1437 -.0982 1.218 -224.85 16.026)" cx="475.277" cy="438.189" fx="475.277" fy="438.189" r="147.987"/></defs><g transform="translate(-369.716 -417.986)"><rect width="308.097" height="308.096" x="425.274" y="462.433" ry="100.005" fill="#c7ebf1"/><rect ry="94.731" y="471.524" x="431.335" height="292.944" width="295.975" opacity=".823" fill="url(#e)"/><rect width="222.857" height="222.857" x="481.429" y="529.505" ry="69.826" transform="matrix(1.1322 0 0 1.1322 -96.938 -103.293)" fill="#016fd2" filter="url(#f)"/><path d="M534.37 660.928a246.982 246.982 0 1 1-493.964 0 246.982 246.982 0 1 1 493.965 0z" transform="matrix(1.54 0 0 1.54 9.5 -721.485)" clip-path="url(#g)" opacity=".173" fill="#5fffe6"/><path d="M687.914 670.524a64.65 64.65 0 1 1-129.3 0 64.65 64.65 0 1 1 129.3 0zM541.442 552.337a37.376 37.376 0 1 1-74.752 0 37.376 37.376 0 1 1 74.752 0z" fill="#fff"/><path d="M440.427 453.342a35.355 35.355 0 1 1-70.71 0 35.355 35.355 0 1 1 70.71 0z" fill="#cbedf2" fill-opacity=".925"/><path d="M313.147 649.31a27.274 27.274 0 1 1-54.548 0 27.274 27.274 0 1 1 54.547 0z" transform="translate(119.198 -195.97)" fill="url(#h)"/></g></svg>